<?xml version="1.0" encoding="utf-8"?>
<!-- Generator: Adobe Illustrator 16.0.0, SVG Export Plug-In . SVG Version: 6.00 Build 0)  -->
<!DOCTYPE svg PUBLIC "-//W3C//DTD SVG 1.1//EN" "http://www.w3.org/Graphics/SVG/1.1/DTD/svg11.dtd">
<svg version="1.1" id="Layer_1" xmlns="http://www.w3.org/2000/svg" xmlns:xlink="http://www.w3.org/1999/xlink" x="0px" y="0px"
	 width="480px" height="159px" viewBox="0 0 480 159" enable-background="new 0 0 480 159" xml:space="preserve">
<g>
	<path fill="#FFFFFF" d="M14.582,62.818V5.958H4.667v56.556c0,8.579,5.214,12.098,11.55,12.098h24.442v-9.621H16.632
		C15.298,64.991,14.582,63.962,14.582,62.818 M49.96,17.955c3.167,0,5.726-2.587,5.726-5.789c0-3.209-2.559-5.896-5.726-5.896
		c-3.169,0-5.725,2.687-5.725,5.896C44.235,15.368,46.791,17.955,49.96,17.955 M472.313,37.909
		c-1.947-5.276-4.904-10.859-12.065-10.859c-6.748,0-10.016,5.793-12.883,10.651l-15.635,25.741
		c-1.13,1.857-2.147,2.681-3.179,2.681c-1.535,0-2.56-1.234-2.56-2.786V5.958h-9.61V29.22c-2.959-1.756-6.021-2.999-10.515-2.999
		c-6.35,0-11.363,2.381-16.372,7.654l-16.147,17.054v-4.653c0-11.678-8.385-20.055-19.831-20.055
		c-6.344,0-11.352,2.381-16.362,7.654l-16.563,17.162v-4.761c0-11.678-8.386-20.055-19.834-20.055
		c-5.523,0-10.531,2.276-13.703,5.996c-2.46-3.412-6.543-6.097-11.451-6.097c-6.541,0-11.555,3.929-12.988,13.028L258.325,65.3
		c-0.106,0.931-0.612,1.141-0.918,1.141c-0.519,0-0.716-0.411-0.925-1.141l-9.812-33.395c-0.815-2.89-2.863-4.542-5.216-4.542
		c-2.453-0.109-4.599,1.346-5.521,4.339l-9.92,33.598c-0.304,0.931-0.609,1.141-0.915,1.141c-0.512,0-0.818-0.411-0.923-1.141
		l-6.341-38.766l-9.508,1.444l3.67,22.61l-6.121,5.929c-6.547,6.301-10.02,9.607-17.381,9.607c-4.807,0-8.59-3.1-9.612-7.438
		c5.112-1.965,9.509-3.511,13.19-5.892c5.011-3.208,8.08-6.615,8.08-13.337c0-7.964-6.853-13.337-14.416-13.337
		c-11.25,0-17.487,9.717-17.487,20.366v8.166c0,0.672,0.034,1.338,0.089,1.997l-8.678,7.724c-1.943,1.658-2.554,2.068-3.582,2.068
		c-1.12,0-2.04-0.826-2.04-2.374V5.958h-9.613v42.466l-17.893,15.949c-1.939,1.658-2.553,2.068-3.579,2.068
		c-1.121,0-2.042-0.826-2.042-2.374V36.149h12.981v-8.994h-12.981v-14.99h-9.616v14.99H87.276v-14.99h-9.614v14.99h-7.458v8.994
		h7.458v12.871l-17.17,15.352c-1.948,1.658-2.562,2.068-3.583,2.068c-1.121,0-2.045-0.826-2.045-2.374V30.771h-9.606v33.295
		c0,7.131,4.398,11.678,10.631,11.678c3.17,0,6.851-1.343,10.936-4.969l10.837-9.668v2.959c0,7.131,4.402,11.678,10.639,11.678
		c3.167,0,6.85-1.343,10.936-4.969l12.062-10.729v4.02c0,7.131,4.399,11.678,10.639,11.678c3.168,0,6.852-1.343,10.937-4.969
		l11.555-10.267v3.558c0,7.131,4.402,11.678,10.633,11.678c3.171,0,6.848-1.343,10.938-4.969l5.379-4.764
		c3.575,5.856,9.88,9.627,17.116,9.627c10.016,0,16.665-5.372,24.331-13.439l0.897-0.954l0.745,4.571
		c0.915,5.484,4.393,9.928,10.422,9.928c3.376,0.104,7.877-2.17,9.715-8.166l6.543-22.646l5.831,21.19
		c1.43,5.383,4.184,9.621,10.225,9.621c3.369,0.104,9.098-1.751,10.425-9.407l4.396-26.676c0.513-2.897,1.636-4.031,3.478-4.031
		c3.167,0,4.803,2.172,4.803,6.924c0,3.625-0.206,7.445,0,12.719c0.411,11.999,8.385,20.472,20.243,20.472
		c6.338,0,11.458-2.273,16.359-7.649l16.359-16.958v4.552c0,11.681,8.592,20.055,20.037,20.055c6.341,0,11.352-2.381,16.362-7.649
		l15.95-16.855v3.829c0,12.302,8.586,20.676,20.035,20.676c5.217,0,9.606-2.068,13.294-5.579c1.839,3.511,5.722,5.579,9.506,5.579
		c4.402,0,7.868-2.273,10.122-5.895l17.998-29.67c1.228-2.068,2.252-3.416,3.576-3.416c1.328,0,1.941,0.937,2.965,3.726
		c2.454,6.722,4.296,11.574,4.296,16.439c0,5.686-4.401,9.408-9.004,9.408c-3.365,0-7.162-1.966-9.81-4.657l-4.599,7.863
		c3.78,4.03,9.713,6.2,14.617,6.2c11.752,0,18.611-8.374,18.611-18.3C477.225,51.344,474.771,44.623,472.313,37.909 M111.298,47.97
		L92.902,64.373c-1.946,1.658-2.557,2.068-3.578,2.068c-1.13,0-2.048-0.826-2.048-2.374V36.149h24.022V47.97z M177.863,45.661
		c0-6.614,2.658-10.135,7.563-10.135c2.966,0,5.013,1.764,5.013,4.452c0,2.577-1.639,4.851-6.341,7.127
		c-1.636,0.827-3.786,1.657-6.235,2.587V45.661z M311.182,55.583c-0.31,6.409-4.809,10.755-10.634,10.755
		c-5.82,0-10.322-4.448-10.522-10.755c-0.108-3.105-0.108-6.822,0-9.922c0.301-6.31,4.902-10.03,10.522-10.03
		c6.234,0,10.228,3.72,10.534,10.03C311.284,49.275,311.284,52.69,311.182,55.583 M363.94,55.583
		c-0.309,6.409-4.805,10.755-10.637,10.755c-5.826,0-10.321-4.448-10.527-10.755c-0.097-3.105-0.097-6.822,0-9.922
		c0.206-6.31,4.91-10.03,10.527-10.03c6.238,0,10.229,3.72,10.534,10.03C364.037,49.275,364.037,52.69,363.94,55.583
		 M416.287,56.103c-0.205,5.889-4.913,10.235-10.739,10.235c-6.031,0-10.118-4.448-10.42-10.755c-0.107-3.105-0.107-6.822,0-9.922
		c0.302-6.31,4.907-10.03,10.523-10.03c6.237,0,10.218,3.72,10.536,9.721C416.381,49.275,416.381,52.69,416.287,56.103"/>
	<rect x="5.047" y="82.709" fill="#FFFFFF" width="6.503" height="69.455"/>
	<g>
		<path fill="#FFFFFF" d="M20.765,100.824h6.496v7.412h0.195c3.057-7.23,8.808-8.349,14.285-8.726v6.943
			c-4.544,0.377-8.446,2.066-10.951,5.066c-2.225,2.816-3.529,6.481-3.529,10.602v30.034h-6.496V100.824z"/>
		<path fill="#FFFFFF" d="M48.796,128.885c0.464,10.041,9.746,18.583,19.672,18.583c9.284-0.19,15.87-5.726,18.199-12.107h6.867
			c-3.529,10.231-13.28,18.021-24.972,18.021c-14.2,0-26.449-11.639-26.449-26.844c0-14.542,11.601-26.749,26.355-27.026
			c11.138,0.093,19.026,6.756,22.648,13.144c3.434,5.528,4.172,11.261,3.904,16.23H48.796z M88.423,122.969
			c-2.042-12.104-11.787-17.549-19.861-17.549c-7.983,0-17.91,5.444-19.766,17.549H88.423z"/>
	</g>
	<rect x="101.229" y="82.709" fill="#FFFFFF" width="6.496" height="69.455"/>
	<path fill="#FFFFFF" d="M167.683,152.156h-6.502v-9.01h-0.184c-5.563,8.449-14.471,10.234-19.771,10.234
		c-15.958,0-27.279-12.298-27.279-27.034c0-13.695,10.669-26.836,27.279-26.836c5.482,0,14.386,1.782,19.771,10.323h0.184v-9.01
		h6.502V152.156z M141.227,147.468c10.957,0,20.329-8.917,20.329-20.931c0-11.264-8.635-21.117-20.329-21.117
		c-11.129,0-20.783,8.168-20.783,21.208C120.443,138.076,128.792,147.468,141.227,147.468"/>
	<path fill="#FFFFFF" d="M177.61,100.824h6.494v6.569h0.189c1.95-3.098,6.959-7.883,15.587-7.883c6.223,0,11.414,1.592,16.064,6.287
		c3.799,3.756,6.308,9.666,6.308,18.117v28.241h-6.504v-28.241c0-6.669-2.036-11.361-4.826-14.081
		c-3.525-3.471-8.158-4.414-11.042-4.414c-2.874,0-7.513,0.943-11.04,4.414c-2.785,2.72-4.827,7.412-4.736,14.081v28.241h-6.494
		V100.824z"/>
	<path fill="#FFFFFF" d="M281.827,152.156h-6.493v-9.01h-0.182c-5.389,8.165-14.393,10.234-19.774,10.234
		c-15.962,0-27.284-12.298-27.284-27.034c0-13.695,10.679-26.836,27.284-26.836c5.572,0,14.299,2.066,19.774,10.133h0.182V82.709
		h6.493V152.156z M255.378,147.468c10.959,0,20.327-8.917,20.327-20.931c0-11.264-8.632-21.117-20.327-21.117
		c-11.131,0-20.788,8.168-20.788,21.208C234.59,138.076,242.945,147.468,255.378,147.468"/>
</g>
</svg>
