<?xml version="1.0" encoding="utf-8"?>
<!-- Generator: Adobe Illustrator 16.0.0, SVG Export Plug-In . SVG Version: 6.00 Build 0)  -->
<!DOCTYPE svg PUBLIC "-//W3C//DTD SVG 1.1//EN" "http://www.w3.org/Graphics/SVG/1.1/DTD/svg11.dtd">
<svg version="1.1" id="Layer_1" xmlns="http://www.w3.org/2000/svg" xmlns:xlink="http://www.w3.org/1999/xlink" x="0px" y="0px"
	 width="96px" height="31px" viewBox="0 0 96 31" enable-background="new 0 0 96 31" xml:space="preserve">
<g>
	<g>
		<path fill="#BCBCBB" d="M10.543,5.458l-0.288,1.539h3.675l-1.066,4.088H9.537L7.625,21.984c-0.387,2.196-1.23,3.641-3.345,5.727
			l-0.259,0.257l-3.188-2.943l0.275-0.282c1.362-1.39,1.528-2.067,1.746-3.352l1.829-10.305H2.661l0.71-4.088H5.4l0.288-1.539
			c0.562-3.035,1.636-4.792,5.464-4.792c1.273,0,2.674,0.236,3.744,0.63l0.326,0.121l-1.032,3.949l-0.394-0.144
			c-0.592-0.214-1.672-0.409-2.268-0.409C10.714,4.813,10.64,4.979,10.543,5.458z M32.344,10.681c0.929,0,2.413,0.216,3.452,0.506
			l0.391,0.108l0.824-3.797l-0.329-0.107c-1.258-0.409-2.991-0.683-4.31-0.683c-3.948,0-5.125,0.854-5.723,4.159
			c-0.397,2.23-0.243,3.461,2.886,5.117c1.6,0.845,1.742,1.08,1.68,1.418c-0.102,0.578-0.131,0.753-1.185,0.753
			c-1.489,0-2.653-0.338-3.688-0.702l-0.392-0.137l-0.967,3.722l0.297,0.132c1.276,0.564,3.135,0.957,4.52,0.957
			c4.477,0,5.5-1.469,6.098-4.765c0.462-2.536-0.304-3.25-3.52-4.972c-1.27-0.675-1.262-0.718-1.191-1.123
			C31.291,10.724,31.299,10.681,32.344,10.681z M43.907,11.028h3.1l0.999-4.031H44.62l0.705-4.028l-4.988,0.687l-0.571,3.341h-2.08
			l-0.713,4.031h2.082l-1.312,7.399c-0.03,0.211-0.062,0.429-0.062,0.658c0,1.932,1.288,3.04,3.533,3.04
			c1.55,0,3.294-0.448,4.664-1.202l0.268-0.147l-1.009-3.533L44.745,17.4c-0.696,0.279-1.429,0.55-2.055,0.55
			c-0.004,0-0.008,0-0.012,0c0.012-0.066,0.029-0.15,0.042-0.215L43.907,11.028z M26.651,7.719l-2.454,14.118h-4.109l0.013-1.895
			c-1.24,0.794-2.736,2.183-4.26,2.183c-1.376,0-2.342-0.352-2.953-1.077c-0.739-0.878-0.913-2.268-0.546-4.37l0.665-3.788
			c0.638-3.693,2.213-6.154,7.833-6.154c1.668,0,3.67,0.322,5.488,0.885L26.651,7.719z M17.126,17.759
			c0.01,0.014,0.08,0.076,0.391,0.076c0.8,0,1.793-0.439,2.739-1.21l0.98-5.583c-0.453-0.061-0.893-0.073-1.147-0.073
			c-1.773,0-1.992,0.717-2.255,2.088l-0.721,4.185C17.052,17.637,17.108,17.739,17.126,17.759z"/>
		<path fill="#BCBCBB" d="M48.683,25.964c-0.305-0.099-0.73-0.152-0.992-0.152c-0.764,0-1.014,0.218-1.146,0.96l-0.315,1.799
			c-0.012,0.065-0.022,0.132-0.022,0.187c0,0.206,0.098,0.348,0.404,0.348c0.425,0,1.123-0.185,1.56-0.337l0.13,1.057
			c-0.479,0.229-1.145,0.404-1.799,0.404c-1.134,0-1.604-0.47-1.604-1.32c0-0.174,0.022-0.327,0.055-0.523l0.317-1.788
			c0.261-1.472,0.97-1.898,2.443-1.898c0.403,0,0.96,0.098,1.265,0.218L48.683,25.964z M49.208,28.496
			c0-0.143,0.011-0.284,0.032-0.427l0.229-1.275c0.24-1.31,0.883-2.095,2.661-2.095c1.363,0,2.008,0.765,2.008,1.701
			c0,0.132-0.012,0.251-0.033,0.382l-0.251,1.419c-0.218,1.242-0.808,2.028-2.673,2.028C49.807,30.229,49.208,29.432,49.208,28.496z
			 M52.807,26.717c0.01-0.066,0.021-0.175,0.021-0.24c0-0.437-0.272-0.677-0.873-0.677c-0.688,0-1.058,0.317-1.178,0.972
			l-0.25,1.429c-0.012,0.065-0.022,0.163-0.022,0.239c0,0.426,0.24,0.688,0.873,0.688c0.687,0,1.059-0.307,1.166-0.927
			L52.807,26.717z M55.949,28.593c-0.011,0.075-0.011,0.119-0.011,0.142c0,0.141,0.065,0.229,0.272,0.229
			c0.35,0,1.09-0.327,1.581-0.621l0.6-3.436l1.342-0.186l-0.949,5.398h-1.111l0.021-0.557c-0.697,0.382-1.526,0.666-2.147,0.666
			c-0.731,0-0.971-0.479-0.971-1.059c0-0.207,0.021-0.35,0.055-0.522l0.654-3.741l1.342-0.186L55.949,28.593z M63.344,25.898
			c-0.622,0.339-1.015,0.59-1.581,0.949l-0.579,3.272h-1.309l0.916-5.203l1.146-0.195l-0.055,0.774
			c0.37-0.272,0.915-0.6,1.364-0.785L63.344,25.898z M64.228,24.907l1.342-0.186l-0.949,5.398h-1.31L64.228,24.907z M64.63,22.638
			l1.342-0.186l-0.261,1.482l-1.343,0.197L64.63,22.638z M67.238,28.571c-0.055,0.305-0.065,0.567,0.415,0.567
			c0.566,0,1.352-0.263,2.04-0.61l0.283,1.002c-0.645,0.395-1.626,0.699-2.509,0.699c-1.408,0-1.69-0.786-1.494-1.898l0.283-1.613
			c0.229-1.254,0.817-2.019,2.421-2.019c1.016,0,1.701,0.524,1.701,1.386c0,0.949-0.62,1.494-2.071,1.941
			c-0.645,0.195-0.774,0.229-1.024,0.295L67.238,28.571z M69.125,26.139c0-0.241-0.207-0.414-0.556-0.414
			c-0.6,0-0.895,0.37-0.981,0.872l-0.099,0.545c0.186-0.055,0.262-0.076,0.796-0.24C68.875,26.717,69.125,26.488,69.125,26.139z
			 M74.229,25.898c-0.621,0.339-1.014,0.59-1.581,0.949l-0.577,3.272H70.76l0.917-5.203l1.146-0.195l-0.055,0.774
			c0.37-0.272,0.916-0.6,1.363-0.785L74.229,25.898z M74.131,29.89l0.252-0.992c0.413,0.143,0.947,0.272,1.482,0.272
			c0.577,0,0.698-0.098,0.764-0.468c0.055-0.329,0-0.447-0.785-0.841c-1.123-0.556-1.243-0.96-1.103-1.767
			c0.187-1.069,0.611-1.396,2.008-1.396c0.502,0,1.156,0.12,1.581,0.263l-0.218,1.003c-0.404-0.119-1.004-0.207-1.375-0.207
			c-0.523,0-0.676,0.021-0.74,0.403c-0.067,0.359,0.032,0.437,0.609,0.752c1.222,0.666,1.439,0.873,1.299,1.713
			c-0.207,1.188-0.611,1.604-2.105,1.604C75.31,30.229,74.579,30.086,74.131,29.89z"/>
		<g>
			<path fill="#BCBCBB" d="M63.922,22.013h-5.625l-0.996-5.239l-2.846,5.239H48.95l-0.003-0.586
				c-0.03-5.989-0.389-9.73-0.919-13.506l-0.081-0.579l5.051-0.785l0.1,0.572c0.42,2.423,0.615,4.614,0.615,6.894
				c0,0.078,0,0.158,0,0.237l2.197-4.25l-0.582-2.633l4.951-0.761l1.327,7.364l0.854-3.303c0.11-0.556,0.157-0.938,0.157-1.308
				c0-0.418-0.065-0.842-0.211-1.375L62.24,7.376l5.126-0.979l0.121,0.565c0.182,0.845,0.303,1.567,0.303,2.349
				c0,1.111-0.254,2.239-0.851,3.769L63.922,22.013z M58.643,21.596h4.979l2.925-8.657c0.578-1.489,0.823-2.571,0.823-3.627
				c0-0.746-0.117-1.443-0.293-2.262l-0.035-0.166l-4.281,0.817l0.05,0.183c0.155,0.57,0.226,1.028,0.226,1.485
				c0,0.4-0.05,0.806-0.168,1.401l-1.096,4.237l-0.408-0.014l-1.426-7.901l-4.106,0.631l0.518,2.345l-2.677,5.177l-0.394-0.103
				c0.01-0.36,0.015-0.737,0.015-1.119c0-2.255-0.193-4.423-0.609-6.822l-0.028-0.168l-4.237,0.659l0.023,0.17
				c0.531,3.792,0.893,7.549,0.921,13.562l0.001,0.172h4.844l3.285-6.051L58.643,21.596z M70.452,22.303
				c-1.442,0-2.46-0.377-3.112-1.152c-0.782-0.93-0.97-2.373-0.592-4.541l0.665-3.787c0.656-3.797,2.273-6.328,8.04-6.328
				c1.69,0,3.714,0.326,5.551,0.894L81.5,7.541l-2.515,14.473h-4.496l0.012-1.71c-0.176,0.121-0.357,0.25-0.544,0.385
				C72.898,21.445,71.699,22.303,70.452,22.303z M75.453,6.914c-5.475,0-7.009,2.391-7.628,5.981l-0.665,3.788
				c-0.355,2.037-0.196,3.372,0.499,4.2c0.568,0.675,1.482,1.002,2.793,1.002c1.113,0,2.254-0.815,3.262-1.537
				c0.309-0.22,0.602-0.43,0.886-0.612l0.325-0.207l-0.015,2.068h3.724l2.392-13.762l-0.146-0.046
				C79.082,7.233,77.103,6.914,75.453,6.914z M72.127,18.012c-0.286,0-0.466-0.049-0.551-0.15c-0.094-0.107-0.113-0.326-0.059-0.684
				l0.722-4.188c0.269-1.404,0.531-2.262,2.46-2.262c0.235,0,0.699,0.01,1.176,0.076l0.216,0.03l-1.03,5.873l-0.06,0.05
				C74.019,17.553,72.973,18.012,72.127,18.012z M71.908,17.577c0.039,0.008,0.108,0.018,0.22,0.018c0.734,0,1.66-0.405,2.549-1.115
				l0.927-5.288c-0.372-0.039-0.715-0.045-0.903-0.045c-1.613,0-1.794,0.588-2.049,1.919l-0.72,4.179
				C71.903,17.426,71.904,17.526,71.908,17.577z M81.864,28.409l-1.397-4.307l0.53-0.198c1.381-0.515,2.366-1.108,3.131-1.891H83.55
				l-0.024-0.179L81.459,7.277L86.73,6.53l0.896,8.794l2.051-4.882c0.203-0.546,0.3-1.045,0.3-1.564
				c0-0.349-0.042-0.703-0.129-1.081l-0.145-0.625l5.105-0.747l0.144,0.498c0.144,0.502,0.226,1.183,0.226,1.868
				c0,0.722-0.089,1.79-0.511,2.775l-4.542,10.098c-1.685,3.368-3.193,5.112-7.699,6.563L81.864,28.409z M80.988,24.354l1.145,3.529
				l0.165-0.052c4.362-1.405,5.823-3.094,7.449-6.345l4.536-10.087c0.395-0.917,0.477-1.924,0.477-2.607
				c0-0.648-0.076-1.288-0.21-1.753l-0.042-0.146l-4.295,0.628l0.043,0.183c0.094,0.409,0.139,0.794,0.139,1.174
				c0,0.57-0.105,1.116-0.329,1.718l-2.372,5.647l-0.399-0.06l-0.937-9.179l-4.425,0.628l1.982,13.963h1.135l-0.289,0.345
				c-0.855,1.014-1.972,1.74-3.618,2.355L80.988,24.354z"/>
		</g>
	</g>
	<g>
		<path fill="#BCBCBB" d="M91.631,21.827c0.875,0,1.419,0.64,1.419,1.427c0,0.788-0.544,1.428-1.419,1.428
			c-0.874,0-1.427-0.64-1.427-1.428C90.205,22.466,90.757,21.827,91.631,21.827z M91.631,24.366c0.717,0,1.088-0.505,1.088-1.112
			c0-0.606-0.371-1.111-1.088-1.111c-0.726,0-1.096,0.505-1.096,1.111C90.536,23.861,90.906,24.366,91.631,24.366z M91.678,23.442
			H91.41v0.435h-0.22v-1.309h0.512c0.292,0,0.411,0.126,0.411,0.347v0.181c0,0.127-0.041,0.229-0.189,0.308l0.346,0.474h-0.268
			L91.678,23.442z M91.694,22.772H91.41v0.466h0.284c0.143,0,0.189-0.055,0.189-0.15V22.93
			C91.883,22.803,91.829,22.772,91.694,22.772z"/>
	</g>
</g>
</svg>
