<?xml version="1.0" encoding="utf-8"?>
<!-- Generator: Adobe Illustrator 16.0.0, SVG Export Plug-In . SVG Version: 6.00 Build 0)  -->
<!DOCTYPE svg PUBLIC "-//W3C//DTD SVG 1.1//EN" "http://www.w3.org/Graphics/SVG/1.1/DTD/svg11.dtd">
<svg version="1.1" id="Layer_1" xmlns="http://www.w3.org/2000/svg" xmlns:xlink="http://www.w3.org/1999/xlink" x="0px" y="0px"
	 width="244.333px" height="82.333px" viewBox="0 0 244.333 82.333" enable-background="new 0 0 244.333 82.333"
	 xml:space="preserve">
<g>
	<path fill="#FFFFFF" d="M9.605,34.277V5.958H4.667v28.167c0,4.273,2.597,6.025,5.752,6.025h12.173v-4.792H10.626
		C9.961,35.359,9.605,34.846,9.605,34.277 M27.225,11.933c1.577,0,2.852-1.288,2.852-2.883c0-1.599-1.274-2.937-2.852-2.937
		c-1.579,0-2.852,1.338-2.852,2.937C24.373,10.645,25.646,11.933,27.225,11.933 M237.574,21.871
		c-0.97-2.628-2.443-5.408-6.009-5.408c-3.361,0-4.988,2.885-6.416,5.305l-7.787,12.82c-0.563,0.925-1.069,1.335-1.583,1.335
		c-0.765,0-1.275-0.615-1.275-1.388V5.958h-4.786v11.585c-1.474-0.875-2.999-1.494-5.237-1.494c-3.162,0-5.659,1.186-8.154,3.813
		l-8.042,8.493v-2.317c0-5.816-4.176-9.988-9.877-9.988c-3.16,0-5.653,1.186-8.149,3.813l-8.249,8.547v-2.371
		c0-5.816-4.176-9.988-9.878-9.988c-2.751,0-5.245,1.134-6.825,2.986c-1.225-1.699-3.258-3.037-5.703-3.037
		c-3.257,0-5.754,1.957-6.469,6.489L131,35.513c-0.053,0.463-0.305,0.568-0.458,0.568c-0.258,0-0.356-0.205-0.46-0.568
		l-4.887-16.632c-0.406-1.439-1.426-2.262-2.598-2.262c-1.221-0.055-2.291,0.67-2.75,2.161l-4.94,16.733
		c-0.151,0.463-0.303,0.568-0.456,0.568c-0.255,0-0.407-0.205-0.459-0.568l-3.158-19.307l-4.735,0.719l1.828,11.261l-3.048,2.953
		c-3.261,3.139-4.99,4.785-8.656,4.785c-2.395,0-4.278-1.544-4.787-3.705c2.546-0.979,4.736-1.749,6.569-2.934
		c2.496-1.598,4.024-3.295,4.024-6.643c0-3.966-3.413-6.643-7.18-6.643c-5.603,0-8.709,4.84-8.709,10.144v4.066
		c0,0.335,0.017,0.667,0.044,0.995l-4.322,3.847c-0.968,0.826-1.272,1.03-1.784,1.03c-0.558,0-1.016-0.411-1.016-1.182V5.958h-4.788
		v21.15l-8.912,7.943c-0.965,0.826-1.271,1.03-1.782,1.03c-0.559,0-1.018-0.411-1.018-1.182V20.995h6.465v-4.479h-6.465V9.05h-4.789
		v7.465H45.81V9.05h-4.789v7.465h-3.714v4.479h3.714v6.41l-8.551,7.646c-0.97,0.826-1.276,1.03-1.784,1.03
		c-0.558,0-1.019-0.411-1.019-1.182V18.316h-4.784v16.583c0,3.551,2.19,5.816,5.294,5.816c1.579,0,3.412-0.668,5.447-2.475
		l5.397-4.815v1.474c0,3.551,2.192,5.816,5.299,5.816c1.577,0,3.411-0.668,5.446-2.475l6.008-5.343v2.002
		c0,3.551,2.19,5.816,5.298,5.816c1.578,0,3.412-0.668,5.447-2.475l5.755-5.113v1.772c0,3.551,2.192,5.816,5.296,5.816
		c1.579,0,3.411-0.668,5.448-2.475l2.679-2.373c1.78,2.917,4.921,4.795,8.525,4.795c4.988,0,8.299-2.675,12.118-6.693l0.447-0.475
		l0.371,2.277c0.456,2.731,2.188,4.944,5.191,4.944c1.682,0.052,3.923-1.081,4.838-4.067l3.259-11.278l2.904,10.554
		c0.712,2.681,2.083,4.792,5.092,4.792c1.678,0.052,4.531-0.872,5.192-4.685l2.189-13.286c0.255-1.443,0.814-2.008,1.732-2.008
		c1.577,0,2.392,1.082,2.392,3.448c0,1.805-0.103,3.708,0,6.334c0.205,5.976,4.176,10.196,10.082,10.196
		c3.157,0,5.707-1.132,8.148-3.81l8.147-8.446v2.268c0,5.817,4.279,9.988,9.979,9.988c3.158,0,5.653-1.186,8.149-3.81l7.944-8.395
		v1.907c0,6.127,4.276,10.297,9.979,10.297c2.598,0,4.784-1.03,6.621-2.778c0.916,1.749,2.85,2.778,4.734,2.778
		c2.192,0,3.918-1.132,5.041-2.936l8.964-14.777c0.611-1.03,1.122-1.701,1.781-1.701c0.661,0,0.967,0.466,1.477,1.855
		c1.222,3.348,2.139,5.764,2.139,8.188c0,2.832-2.192,4.686-4.484,4.686c-1.676,0-3.567-0.979-4.886-2.319l-2.291,3.916
		c1.883,2.007,4.837,3.088,7.28,3.088c5.853,0,9.269-4.17,9.269-9.114C240.021,28.563,238.798,25.215,237.574,21.871 M57.774,26.882
		l-9.163,8.169c-0.969,0.826-1.273,1.03-1.782,1.03c-0.563,0-1.02-0.411-1.02-1.182V20.995h11.964V26.882z M90.926,25.731
		c0-3.294,1.324-5.048,3.767-5.048c1.478,0,2.497,0.879,2.497,2.218c0,1.283-0.816,2.416-3.158,3.549
		c-0.815,0.412-1.885,0.825-3.105,1.289V25.731z M157.324,30.673c-0.154,3.192-2.395,5.356-5.296,5.356
		c-2.898,0-5.141-2.215-5.24-5.356c-0.054-1.546-0.054-3.397,0-4.942c0.149-3.142,2.441-4.995,5.24-4.995
		c3.105,0,5.094,1.853,5.247,4.995C157.375,27.532,157.375,29.233,157.324,30.673 M183.6,30.673
		c-0.154,3.192-2.393,5.356-5.297,5.356c-2.902,0-5.141-2.215-5.243-5.356c-0.048-1.546-0.048-3.397,0-4.942
		c0.103-3.142,2.445-4.995,5.243-4.995c3.107,0,5.094,1.853,5.247,4.995C183.648,27.532,183.648,29.233,183.6,30.673
		 M209.671,30.932c-0.102,2.933-2.447,5.098-5.349,5.098c-3.003,0-5.039-2.215-5.189-5.356c-0.053-1.546-0.053-3.397,0-4.942
		c0.15-3.142,2.444-4.995,5.241-4.995c3.106,0,5.089,1.853,5.248,4.841C209.718,27.532,209.718,29.233,209.671,30.932"/>
	<rect x="4.856" y="44.183" fill="#FFFFFF" width="3.239" height="34.592"/>
	<g>
		<path fill="#FFFFFF" d="M12.684,53.206h3.235v3.691h0.097c1.522-3.601,4.387-4.158,7.114-4.346v3.458
			c-2.263,0.188-4.207,1.029-5.454,2.523c-1.108,1.403-1.758,3.228-1.758,5.28v14.958h-3.235V53.206z"/>
		<path fill="#FFFFFF" d="M26.645,67.181c0.231,5.001,4.854,9.255,9.797,9.255c4.624-0.095,7.904-2.852,9.064-6.03h3.42
			c-1.758,5.096-6.614,8.975-12.437,8.975c-7.072,0-13.173-5.796-13.173-13.369c0-7.243,5.778-13.322,13.126-13.46
			c5.547,0.046,9.476,3.365,11.28,6.546c1.71,2.753,2.078,5.608,1.944,8.083H26.645z M46.381,64.234
			c-1.017-6.029-5.871-8.74-9.892-8.74c-3.976,0-8.92,2.711-9.844,8.74H46.381z"/>
	</g>
	<rect x="52.759" y="44.183" fill="#FFFFFF" width="3.235" height="34.592"/>
	<path fill="#FFFFFF" d="M85.855,78.771h-3.238v-4.487h-0.091c-2.771,4.208-7.208,5.097-9.847,5.097
		c-7.948,0-13.586-6.125-13.586-13.464c0-6.821,5.313-13.365,13.586-13.365c2.73,0,7.165,0.888,9.847,5.142h0.091v-4.487h3.238
		V78.771z M72.679,76.436c5.457,0,10.125-4.441,10.125-10.424c0-5.61-4.301-10.518-10.125-10.518
		c-5.542,0-10.351,4.068-10.351,10.563C62.328,71.758,66.486,76.436,72.679,76.436"/>
	<path fill="#FFFFFF" d="M90.8,53.206h3.234v3.271h0.094c0.971-1.542,3.466-3.926,7.763-3.926c3.099,0,5.685,0.793,8.001,3.131
		c1.892,1.871,3.142,4.814,3.142,9.023v14.065h-3.239V64.706c0-3.321-1.014-5.658-2.403-7.013c-1.756-1.729-4.063-2.199-5.5-2.199
		c-1.431,0-3.742,0.47-5.498,2.199c-1.387,1.354-2.404,3.691-2.359,7.013v14.065H90.8V53.206z"/>
	<path fill="#FFFFFF" d="M142.704,78.771h-3.234v-4.487h-0.09c-2.684,4.066-7.168,5.097-9.849,5.097
		c-7.95,0-13.588-6.125-13.588-13.464c0-6.821,5.319-13.365,13.588-13.365c2.775,0,7.122,1.029,9.849,5.046h0.09V44.183h3.234
		V78.771z M129.531,76.436c5.458,0,10.124-4.441,10.124-10.424c0-5.61-4.299-10.518-10.124-10.518
		c-5.543,0-10.353,4.068-10.353,10.563C119.178,71.758,123.339,76.436,129.531,76.436"/>
</g>
</svg>
