<?xml version="1.0" encoding="utf-8"?>
<!-- Generator: Adobe Illustrator 16.0.0, SVG Export Plug-In . SVG Version: 6.00 Build 0)  -->
<!DOCTYPE svg PUBLIC "-//W3C//DTD SVG 1.1//EN" "http://www.w3.org/Graphics/SVG/1.1/DTD/svg11.dtd">
<svg version="1.1" id="Layer_1" xmlns="http://www.w3.org/2000/svg" xmlns:xlink="http://www.w3.org/1999/xlink" x="0px" y="0px"
	 width="525px" height="52px" viewBox="0 0 525 52" enable-background="new 0 0 525 52" xml:space="preserve">
<g>
	<path d="M8.019,40.876V2.25H1.283v38.418c0,5.827,3.542,8.218,7.846,8.218h16.603v-6.534H9.411
		C8.505,42.352,8.019,41.651,8.019,40.876 M32.05,10.4c2.151,0,3.89-1.758,3.89-3.932c0-2.18-1.738-4.006-3.89-4.006
		c-2.152,0-3.889,1.826-3.889,4.006C28.162,8.642,29.898,10.4,32.05,10.4 M318.95,23.954c-1.323-3.583-3.331-7.375-8.196-7.375
		c-4.584,0-6.803,3.934-8.751,7.233L291.382,41.3c-0.766,1.26-1.459,1.82-2.159,1.82c-1.043,0-1.738-0.839-1.738-1.892V2.25h-6.527
		v15.802c-2.011-1.192-4.091-2.036-7.144-2.036c-4.312,0-7.717,1.616-11.121,5.199L251.724,32.8v-3.162
		c0-7.933-5.697-13.622-13.472-13.622c-4.307,0-7.709,1.616-11.114,5.199l-11.25,11.657v-3.234c0-7.933-5.696-13.622-13.473-13.622
		c-3.753,0-7.155,1.544-9.309,4.071c-1.67-2.317-4.445-4.142-7.78-4.142c-4.442,0-7.848,2.67-8.823,8.85l-2.912,17.764
		c-0.072,0.632-0.417,0.775-0.625,0.775c-0.351,0-0.485-0.28-0.627-0.775l-6.666-22.684c-0.555-1.963-1.944-3.085-3.542-3.085
		c-1.666-0.075-3.125,0.914-3.751,2.948l-6.739,22.821c-0.206,0.632-0.413,0.775-0.621,0.775c-0.348,0-0.556-0.28-0.626-0.775
		l-4.307-26.332l-6.459,0.98l2.493,15.359l-4.158,4.027c-4.448,4.282-6.807,6.526-11.807,6.526c-3.266,0-5.835-2.104-6.53-5.052
		c3.473-1.336,6.46-2.385,8.961-4.002c3.404-2.18,5.488-4.495,5.488-9.061c0-5.409-4.655-9.06-9.793-9.06
		c-7.642,0-11.878,6.602-11.878,13.834v5.547c0,0.456,0.024,0.908,0.061,1.357l-5.895,5.247c-1.32,1.123-1.734,1.403-2.433,1.403
		c-0.761,0-1.386-0.559-1.386-1.611V2.25h-6.53v28.847L84.067,41.932c-1.317,1.123-1.733,1.403-2.431,1.403
		c-0.761,0-1.387-0.559-1.387-1.611V22.76h8.818v-6.112h-8.818V6.468h-6.532v10.18H57.399V6.468h-6.531v10.18h-5.066v6.112h5.066
		v8.742l-11.663,10.43c-1.324,1.123-1.741,1.403-2.434,1.403c-0.761,0-1.389-0.559-1.389-1.611V19.106h-6.525v22.618
		c0,4.845,2.988,7.932,7.221,7.932c2.154,0,4.654-0.912,7.43-3.377l7.361-6.564v2.01c0,4.845,2.991,7.932,7.227,7.932
		c2.151,0,4.653-0.912,7.43-3.377l8.193-7.286v2.731c0,4.845,2.988,7.932,7.227,7.932c2.153,0,4.654-0.912,7.429-3.377l7.849-6.972
		v2.417c0,4.845,2.991,7.932,7.224,7.932c2.154,0,4.652-0.912,7.43-3.377l3.654-3.235c2.429,3.979,6.711,6.541,11.627,6.541
		c6.803,0,11.319-3.649,16.527-9.129l0.609-0.648l0.505,3.105c0.622,3.724,2.984,6.743,7.08,6.743
		c2.294,0.072,5.351-1.474,6.6-5.547l4.445-15.383l3.96,14.395c0.972,3.655,2.843,6.535,6.945,6.535
		c2.289,0.072,6.18-1.189,7.082-6.389l2.987-18.123c0.347-1.968,1.11-2.735,2.361-2.735c2.153,0,3.263,1.474,3.263,4.701
		c0,2.462-0.14,5.058,0,8.641c0.279,8.149,5.695,13.905,13.752,13.905c4.306,0,7.781-1.544,11.112-5.195l11.113-11.52v3.091
		c0,7.936,5.838,13.624,13.612,13.624c4.306,0,7.709-1.616,11.114-5.195l10.836-11.451v2.603c0,8.355,5.831,14.044,13.607,14.044
		c3.543,0,6.527-1.403,9.031-3.789c1.25,2.386,3.888,3.789,6.459,3.789c2.989,0,5.343-1.544,6.872-4.003l12.228-20.157
		c0.833-1.403,1.531-2.319,2.43-2.319c0.901,0,1.318,0.636,2.014,2.532c1.667,4.567,2.919,7.862,2.919,11.168
		c0,3.859-2.992,6.391-6.115,6.391c-2.287,0-4.867-1.335-6.664-3.163l-3.125,5.34c2.57,2.738,6.597,4.212,9.93,4.212
		c7.982,0,12.641-5.688,12.641-12.432C322.285,33.079,320.617,28.516,318.95,23.954 M73.717,30.79L61.221,41.932
		c-1.323,1.123-1.737,1.403-2.431,1.403c-0.768,0-1.391-0.559-1.391-1.611V22.76h16.318V30.79z M118.934,29.22
		c0-4.492,1.805-6.885,5.137-6.885c2.015,0,3.405,1.197,3.405,3.025c0,1.75-1.113,3.295-4.307,4.839
		c-1.112,0.564-2.571,1.126-4.235,1.759V29.22z M209.496,35.959c-0.211,4.354-3.267,7.308-7.224,7.308
		c-3.955,0-7.013-3.022-7.149-7.308c-0.073-2.106-0.073-4.634,0-6.739c0.205-4.286,3.33-6.812,7.149-6.812
		c4.234,0,6.947,2.525,7.154,6.812C209.565,31.676,209.565,33.996,209.496,35.959 M245.334,35.959
		c-0.209,4.354-3.265,7.308-7.225,7.308c-3.957,0-7.013-3.022-7.151-7.308c-0.067-2.106-0.067-4.634,0-6.739
		c0.138-4.286,3.335-6.812,7.151-6.812c4.237,0,6.945,2.525,7.156,6.812C245.4,31.676,245.4,33.996,245.334,35.959 M280.891,36.312
		c-0.14,4.002-3.335,6.955-7.295,6.955c-4.095,0-6.872-3.022-7.079-7.308c-0.069-2.106-0.069-4.634,0-6.739
		c0.207-4.286,3.336-6.812,7.15-6.812c4.238,0,6.942,2.525,7.159,6.602C280.957,31.676,280.957,33.996,280.891,36.312"/>
	<g>
		<rect x="335.323" y="2.371" width="4.417" height="47.18"/>
		<g>
			<path d="M346.001,14.679h4.412v5.03h0.133c2.076-4.907,5.981-5.67,9.703-5.925v4.716c-3.087,0.254-5.738,1.405-7.438,3.444
				c-1.512,1.914-2.398,4.398-2.398,7.2V49.55h-4.412V14.679z"/>
			<path d="M365.041,33.737c0.315,6.819,6.62,12.623,13.363,12.623c6.306-0.128,10.779-3.887,12.363-8.225h4.663
				c-2.397,6.952-9.021,12.244-16.963,12.244c-9.646,0-17.967-7.906-17.967-18.235c0-9.878,7.881-18.17,17.903-18.36
				c7.566,0.063,12.924,4.589,15.384,8.928c2.333,3.754,2.835,7.647,2.652,11.024H365.041z M391.96,29.721
				c-1.388-8.221-8.008-11.919-13.492-11.919c-5.423,0-12.165,3.699-13.427,11.919H391.96z"/>
		</g>
		<rect x="400.659" y="2.371" width="4.412" height="47.18"/>
		<path d="M445.799,49.546h-4.416v-6.118h-0.124c-3.78,5.74-9.831,6.952-13.431,6.952c-10.841,0-18.53-8.354-18.53-18.365
			c0-9.303,7.248-18.23,18.53-18.23c3.724,0,9.772,1.208,13.431,7.013h0.124v-6.119h4.416V49.546z M427.828,46.36
			c7.443,0,13.81-6.058,13.81-14.216c0-7.653-5.866-14.343-13.81-14.343c-7.561,0-14.118,5.546-14.118,14.406
			C413.71,39.984,419.38,46.36,427.828,46.36"/>
		<path d="M452.544,14.679h4.411v4.462h0.128c1.324-2.107,4.728-5.356,10.588-5.356c4.227,0,7.753,1.082,10.912,4.271
			c2.582,2.551,4.286,6.567,4.286,12.305V49.55h-4.419V30.36c0-4.525-1.383-7.715-3.278-9.563c-2.394-2.36-5.542-3-7.501-3
			c-1.952,0-5.104,0.64-7.499,3c-1.893,1.847-3.278,5.037-3.217,9.563V49.55h-4.411V14.679z"/>
		<path d="M523.337,49.546h-4.41v-6.118h-0.124c-3.66,5.544-9.776,6.952-13.433,6.952c-10.844,0-18.533-8.354-18.533-18.365
			c0-9.303,7.254-18.23,18.533-18.23c3.785,0,9.713,1.405,13.433,6.885h0.124V2.371h4.41V49.546z M505.37,46.36
			c7.443,0,13.808-6.058,13.808-14.216c0-7.653-5.863-14.343-13.808-14.343c-7.561,0-14.121,5.546-14.121,14.406
			C491.249,39.984,496.925,46.36,505.37,46.36"/>
	</g>
</g>
</svg>
