<?xml version="1.0" encoding="UTF-8" standalone="no"?>
<!-- Generator: Adobe Illustrator 16.0.0, SVG Export Plug-In . SVG Version: 6.00 Build 0)  -->

<svg
   xmlns:dc="http://purl.org/dc/elements/1.1/"
   xmlns:cc="http://creativecommons.org/ns#"
   xmlns:rdf="http://www.w3.org/1999/02/22-rdf-syntax-ns#"
   xmlns:svg="http://www.w3.org/2000/svg"
   xmlns="http://www.w3.org/2000/svg"
   xmlns:sodipodi="http://sodipodi.sourceforge.net/DTD/sodipodi-0.dtd"
   xmlns:inkscape="http://www.inkscape.org/namespaces/inkscape"
   version="1.1"
   id="Layer_1"
   x="0px"
   y="0px"
   width="841.89px"
   height="595.28px"
   viewBox="0 0 841.89 595.28"
   enable-background="new 0 0 841.89 595.28"
   xml:space="preserve"
   inkscape:version="0.48.4 r9939"
   sodipodi:docname="lwi-logo-stacked.svg"><metadata
     id="metadata3071"><rdf:RDF><cc:Work
         rdf:about=""><dc:format>image/svg+xml</dc:format><dc:type
           rdf:resource="http://purl.org/dc/dcmitype/StillImage" /></cc:Work></rdf:RDF></metadata><defs
     id="defs3069" /><sodipodi:namedview
     pagecolor="#ffffff"
     bordercolor="#666666"
     borderopacity="1"
     objecttolerance="10"
     gridtolerance="10"
     guidetolerance="10"
     inkscape:pageopacity="0"
     inkscape:pageshadow="2"
     inkscape:window-width="1362"
     inkscape:window-height="742"
     id="namedview3067"
     showgrid="false"
     inkscape:zoom="0.96089231"
     inkscape:cx="420.94501"
     inkscape:cy="297.64001"
     inkscape:window-x="0"
     inkscape:window-y="22"
     inkscape:window-maximized="0"
     inkscape:current-layer="Layer_1" /><path
     d="M126.399,278.606v-74.439h-12.982v74.039c0,11.233,6.826,15.838,15.12,15.838h31.999v-12.594H129.08  C127.334,281.451,126.399,280.104,126.399,278.606 M172.711,219.872c4.147,0,7.497-3.388,7.497-7.579  c0-4.201-3.35-7.717-7.497-7.717c-4.147,0-7.492,3.516-7.492,7.717C165.219,216.484,168.563,219.872,172.711,219.872   M725.638,245.996c-2.552-6.908-6.418-14.216-15.797-14.216c-8.828,0-13.104,7.583-16.856,13.945l-20.475,33.699  c-1.476,2.432-2.81,3.511-4.16,3.511c-2.01,0-3.352-1.618-3.352-3.648v-75.12h-12.581v30.454c-3.875-2.298-7.886-3.925-13.771-3.925  c-8.304,0-14.874,3.116-21.426,10.02l-21.142,22.328v-6.094c0-15.287-10.979-26.253-25.969-26.253  c-8.295,0-14.855,3.116-21.417,10.02l-21.684,22.466v-6.232c0-15.287-10.971-26.253-25.964-26.253  c-7.232,0-13.789,2.979-17.937,7.851c-3.219-4.468-8.57-7.984-14.998-7.984c-8.562,0-15.123,5.144-16.998,17.057l-5.614,34.237  c-0.138,1.218-0.805,1.493-1.206,1.493c-0.675,0-0.932-0.537-1.207-1.493l-12.848-43.718c-1.069-3.783-3.75-5.948-6.828-5.948  c-3.209-0.142-6.021,1.761-7.228,5.681l-12.986,43.985c-0.4,1.218-0.798,1.493-1.199,1.493c-0.671,0-1.071-0.537-1.208-1.493  l-8.299-50.75l-12.45,1.889l4.803,29.601l-8.012,7.761c-8.57,8.25-13.118,12.579-22.755,12.579c-6.292,0-11.243-4.058-12.583-9.738  c6.692-2.574,12.451-4.597,17.27-7.713c6.561-4.201,10.577-8.659,10.577-17.461c0-10.428-8.97-17.461-18.872-17.461  c-14.729,0-22.893,12.723-22.893,26.663v10.691c0,0.88,0.044,1.751,0.118,2.614l-11.362,10.113  c-2.545,2.169-3.345,2.707-4.688,2.707c-1.467,0-2.672-1.08-2.672-3.107v-76.075h-12.584v55.596l-23.423,20.879  c-2.539,2.169-3.343,2.707-4.686,2.707c-1.469,0-2.673-1.08-2.673-3.107v-36.548h16.994v-11.775h-16.994v-19.625h-12.589v19.625  h-31.45v-19.625h-12.586v19.625h-9.765v11.775h9.765v16.847L186.5,280.642c-2.549,2.169-3.352,2.707-4.688,2.707  c-1.469,0-2.678-1.08-2.678-3.107v-43.589h-12.578v43.589c0,9.335,5.758,15.287,13.918,15.287c4.149,0,8.97-1.755,14.318-6.503  l14.187-12.66v3.876c0,9.335,5.76,15.287,13.927,15.287c4.147,0,8.968-1.755,14.317-6.503l15.792-14.046v5.263  c0,9.335,5.758,15.287,13.926,15.287c4.148,0,8.971-1.755,14.318-6.503l15.127-13.442v4.659c0,9.335,5.762,15.287,13.923,15.287  c4.149,0,8.963-1.755,14.318-6.503l7.043-6.236c4.678,7.664,12.934,12.603,22.406,12.603c13.114,0,21.817-7.033,31.855-17.595  l1.173-1.249l0.976,5.983c1.198,7.179,5.75,12.997,13.645,12.997c4.421,0.138,10.311-2.84,12.72-10.69l8.563-29.646l7.635,27.742  c1.871,7.046,5.481,12.594,13.385,12.594c4.41,0.138,11.913-2.293,13.646-12.313l5.761-34.926c0.667-3.792,2.139-5.276,4.548-5.276  c4.147,0,6.29,2.844,6.29,9.063c0,4.748-0.271,9.749,0,16.652c0.533,15.709,10.971,26.8,26.502,26.8  c8.295,0,14.998-2.974,21.417-10.015l21.417-22.199v5.961c0,15.292,11.246,26.253,26.235,26.253c8.294,0,14.856-3.116,21.417-10.015  l20.884-22.065v5.014c0,16.105,11.237,27.067,26.227,27.067c6.828,0,12.58-2.707,17.397-7.304c2.41,4.597,7.496,7.304,12.456,7.304  c5.761,0,10.295-2.974,13.247-7.717l23.559-38.841c1.609-2.707,2.952-4.472,4.686-4.472c1.734,0,2.543,1.227,3.876,4.876  c3.22,8.802,5.628,15.153,5.628,21.523c0,7.441-5.76,12.318-11.788,12.318c-4.4,0-9.371-2.574-12.839-6.099l-6.027,10.294  c4.953,5.277,12.714,8.117,19.142,8.117c15.379,0,24.359-10.962,24.359-23.955C732.066,263.585,728.857,254.784,725.638,245.996   M253.016,259.167l-24.084,21.475c-2.549,2.169-3.347,2.707-4.685,2.707c-1.478,0-2.68-1.08-2.68-3.107v-36.548h31.45V259.167z   M340.159,256.145c0-8.66,3.478-13.269,9.901-13.269c3.883,0,6.562,2.307,6.562,5.827c0,3.374-2.145,6.353-8.302,9.331  c-2.141,1.085-4.955,2.169-8.161,3.387V256.145z M514.697,269.134c-0.41,8.392-6.295,14.082-13.923,14.082  c-7.623,0-13.518-5.823-13.779-14.082c-0.143-4.063-0.143-8.931,0-12.989c0.396-8.259,6.418-13.131,13.779-13.131  c8.161,0,13.39,4.872,13.789,13.131C514.83,260.874,514.83,265.346,514.697,269.134 M583.767,269.134  c-0.41,8.392-6.295,14.082-13.923,14.082c-7.627,0-13.522-5.823-13.789-14.082c-0.124-4.063-0.124-8.931,0-12.989  c0.267-8.259,6.428-13.131,13.789-13.131c8.161,0,13.38,4.872,13.789,13.131C583.891,260.874,583.891,265.346,583.767,269.134   M652.293,269.813c-0.266,7.712-6.428,13.402-14.055,13.402c-7.896,0-13.247-5.823-13.647-14.082c-0.134-4.063-0.134-8.931,0-12.989  c0.4-8.259,6.428-13.131,13.78-13.131c8.161,0,13.38,4.872,13.797,12.727C652.417,260.874,652.417,265.346,652.293,269.813"
     id="path3049"
     style="fill:#ffffff" /><rect
     x="113.917"
     y="304.646"
     width="8.512"
     height="90.929"
     id="rect3051"
     style="fill:#ffffff" /><g
     id="g3053"
     style="fill:#ffffff"><path
       d="M134.491,328.363h8.507v9.699h0.253c4.003-9.46,11.531-10.926,18.703-11.424v9.095c-5.95,0.489-11.06,2.703-14.335,6.633   c-2.914,3.688-4.621,8.481-4.621,13.877v39.322h-8.507V328.363z"
       id="path3055"
       style="fill:#ffffff" /><path
       d="M171.19,365.099c0.606,13.139,12.758,24.324,25.753,24.324c12.154-0.249,20.777-7.494,23.824-15.852h8.991   c-4.621,13.397-17.385,23.595-32.692,23.595c-18.59,0-34.628-15.237-34.628-35.144c0-19.034,15.189-35.02,34.505-35.384   c14.581,0.124,24.907,8.846,29.65,17.212c4.494,7.236,5.463,14.74,5.11,21.248H171.19z M223.068,357.354   c-2.674-15.842-15.432-22.973-26.002-22.973c-10.45,0-23.446,7.131-25.875,22.973H223.068z"
       id="path3057"
       style="fill:#ffffff" /></g><rect
     x="239.833"
     y="304.646"
     width="8.503"
     height="90.929"
     id="rect3059"
     style="fill:#ffffff" /><path
     d="M326.83,395.565h-8.51v-11.797h-0.242c-7.283,11.059-18.946,13.397-25.883,13.397c-20.892,0-35.712-16.101-35.712-35.393  c0-17.933,13.969-35.135,35.712-35.135c7.18,0,18.835,2.338,25.883,13.522h0.242v-11.798h8.51V395.565z M292.195,389.423  c14.345,0,26.614-11.673,26.614-27.4c0-14.749-11.304-27.641-26.614-27.641c-14.569,0-27.208,10.687-27.208,27.765  C264.986,377.136,275.917,389.423,292.195,389.423"
     id="path3061"
     style="fill:#ffffff" /><path
     d="M339.828,328.363h8.501v8.597h0.249c2.552-4.054,9.108-10.321,20.405-10.321c8.146,0,14.943,2.089,21.031,8.232  c4.974,4.916,8.257,12.66,8.257,23.72v36.975h-8.515v-36.975c0-8.731-2.665-14.874-6.316-18.43  c-4.614-4.553-10.68-5.788-14.456-5.788c-3.763,0-9.837,1.235-14.453,5.788c-3.645,3.556-6.319,9.698-6.201,18.43v36.975h-8.501  V328.363z"
     id="path3063"
     style="fill:#ffffff" /><path
     d="M476.264,395.565h-8.503v-11.797h-0.236c-7.05,10.686-18.839,13.397-25.884,13.397c-20.899,0-35.722-16.101-35.722-35.393  c0-17.933,13.98-35.135,35.722-35.135c7.294,0,18.714,2.711,25.884,13.273h0.236v-35.266h8.503V395.565z M441.641,389.423  c14.34,0,26.613-11.673,26.613-27.4c0-14.749-11.309-27.641-26.613-27.641c-14.574,0-27.218,10.687-27.218,27.765  C414.422,377.136,425.361,389.423,441.641,389.423"
     id="path3065"
     style="fill:#ffffff" /></svg>