<?xml version="1.0" encoding="utf-8"?>
<!-- Generator: Adobe Illustrator 16.0.0, SVG Export Plug-In . SVG Version: 6.00 Build 0)  -->
<!DOCTYPE svg PUBLIC "-//W3C//DTD SVG 1.1//EN" "http://www.w3.org/Graphics/SVG/1.1/DTD/svg11.dtd">
<svg version="1.1" id="Layer_1" xmlns="http://www.w3.org/2000/svg" xmlns:xlink="http://www.w3.org/1999/xlink" x="0px" y="0px"
	 width="632.445px" height="90px" viewBox="0 146.14 632.445 90" enable-background="new 0 146.14 632.445 90" xml:space="preserve"
	>
<g>
	<path fill="#FFFFFF" d="M10.701,210.252v-46.394H2.61v46.145c0,7,4.255,9.871,9.424,9.871h19.943v-7.85H12.372
		C11.285,212.025,10.701,211.186,10.701,210.252 M39.565,173.646c2.584,0,4.672-2.11,4.672-4.724c0-2.618-2.088-4.81-4.672-4.81
		s-4.67,2.191-4.67,4.81C34.896,171.536,36.981,173.646,39.565,173.646 M384.181,189.928c-1.591-4.306-4.001-8.859-9.846-8.859
		c-5.502,0-8.167,4.727-10.506,8.69l-12.759,21.003c-0.92,1.517-1.751,2.189-2.594,2.189c-1.252,0-2.089-1.009-2.089-2.273v-46.819
		h-7.841v18.979c-2.415-1.432-4.915-2.445-8.582-2.445c-5.176,0-9.271,1.94-13.354,6.245l-13.177,13.915v-3.799
		c0-9.527-6.844-16.361-16.186-16.361c-5.169,0-9.257,1.94-13.348,6.245l-13.515,14.001v-3.884c0-9.527-6.838-16.362-16.182-16.362
		c-4.507,0-8.594,1.857-11.18,4.893c-2.006-2.784-5.341-4.977-9.347-4.977c-5.336,0-9.426,3.206-10.595,10.631l-3.499,21.339
		c-0.086,0.759-0.5,0.931-0.751,0.931c-0.42,0-0.581-0.335-0.752-0.931l-8.007-27.248c-0.667-2.357-2.337-3.707-4.256-3.707
		c-2-0.089-3.752,1.098-4.504,3.54l-8.094,27.414c-0.25,0.759-0.498,0.931-0.747,0.931c-0.418,0-0.667-0.334-0.753-0.931
		l-5.172-31.63l-7.759,1.176l2.993,18.449l-4.993,4.838c-5.342,5.142-8.176,7.839-14.183,7.839c-3.922,0-7.008-2.527-7.843-6.068
		c4.171-1.604,7.76-2.865,10.763-4.808c4.089-2.618,6.592-5.396,6.592-10.882c0-6.5-5.591-10.883-11.762-10.883
		c-9.18,0-14.268,7.929-14.268,16.618v6.663c0,0.549,0.027,1.091,0.073,1.629l-7.081,6.303c-1.586,1.353-2.084,1.687-2.922,1.687
		c-0.914,0-1.665-0.673-1.665-1.937v-47.414h-7.843v34.65l-14.599,13.014c-1.583,1.353-2.083,1.687-2.92,1.687
		c-0.916,0-1.667-0.673-1.667-1.937v-22.778h10.591v-7.339H97.462v-12.232h-7.846v12.232H70.015v-12.232H62.17v12.232h-6.086v7.339
		h6.086v10.5l-14.01,12.528c-1.588,1.353-2.089,1.687-2.922,1.687c-0.916,0-1.669-0.673-1.669-1.937v-27.168H35.73v27.168
		c0,5.817,3.589,9.527,8.674,9.527c2.586,0,5.591-1.094,8.924-4.053l8.842-7.89v2.415c0,5.817,3.59,9.527,8.68,9.527
		c2.584,0,5.59-1.094,8.924-4.053l9.842-8.755v3.28c0,5.817,3.589,9.527,8.681,9.527c2.585,0,5.591-1.094,8.924-4.053l9.428-8.378
		v2.904c0,5.817,3.591,9.527,8.678,9.527c2.586,0,5.586-1.094,8.923-4.053l4.39-3.887c2.915,4.776,8.061,7.854,13.965,7.854
		c8.173,0,13.598-4.383,19.854-10.966l0.731-0.778l0.608,3.729c0.747,4.475,3.584,8.101,8.504,8.101
		c2.754,0.086,6.425-1.77,7.928-6.662l5.337-18.478l4.758,17.291c1.166,4.391,3.417,7.849,8.343,7.849
		c2.748,0.086,7.424-1.43,8.505-7.674l3.59-21.769c0.416-2.362,1.333-3.288,2.835-3.288c2.584,0,3.92,1.773,3.92,5.649
		c0,2.958-0.169,6.075,0,10.378c0.333,9.79,6.838,16.703,16.518,16.703c5.169,0,9.348-1.854,13.348-6.242l13.349-13.835v3.714
		c0,9.531,7.009,16.363,16.352,16.363c5.169,0,9.259-1.942,13.348-6.242l13.016-13.752v3.125c0,10.037,7.004,16.869,16.345,16.869
		c4.256,0,7.841-1.688,10.844-4.552c1.502,2.865,4.673,4.552,7.764,4.552c3.59,0,6.416-1.854,8.256-4.81l14.682-24.208
		c1.004-1.688,1.84-2.787,2.921-2.787c1.08,0,1.585,0.765,2.415,3.04c2.008,5.485,3.508,9.444,3.508,13.414
		c0,4.639-3.59,7.678-7.348,7.678c-2.742,0-5.839-1.604-8.001-3.8l-3.756,6.416c3.087,3.288,7.923,5.058,11.93,5.058
		c9.584,0,15.182-6.831,15.182-14.929C388.187,200.89,386.187,195.406,384.181,189.928 M89.616,198.138l-15.011,13.384
		c-1.588,1.353-2.086,1.687-2.92,1.687c-0.922,0-1.671-0.673-1.671-1.937v-22.778h19.601v9.645H89.616z M143.928,196.254
		c0-5.398,2.167-8.271,6.171-8.271c2.42,0,4.089,1.438,4.089,3.632c0,2.104-1.337,3.959-5.174,5.815
		c-1.334,0.676-3.088,1.351-5.086,2.11V196.254z M252.711,204.349c-0.255,5.23-3.924,8.776-8.678,8.776
		c-4.751,0-8.425-3.629-8.588-8.776c-0.089-2.532-0.089-5.566,0-8.095c0.247-5.148,4-8.185,8.588-8.185
		c5.086,0,8.345,3.037,8.595,8.185C252.794,199.201,252.794,201.989,252.711,204.349 M295.758,204.349
		c-0.256,5.23-3.924,8.776-8.677,8.776c-4.754,0-8.429-3.629-8.595-8.776c-0.078-2.532-0.078-5.566,0-8.095
		c0.166-5.148,4.006-8.185,8.595-8.185c5.085,0,8.338,3.037,8.593,8.185C295.836,199.201,295.836,201.989,295.758,204.349
		 M338.468,204.773c-0.165,4.807-4.006,8.353-8.76,8.353c-4.921,0-8.258-3.629-8.506-8.776c-0.084-2.532-0.084-5.566,0-8.095
		c0.25-5.148,4.006-8.185,8.588-8.185c5.088,0,8.34,3.037,8.6,7.932C338.545,199.201,338.545,201.989,338.468,204.773"/>
	<g>
		<rect x="403.032" y="163.14" fill="#FFFFFF" width="5.306" height="56.672"/>
		<g>
			<path fill="#FFFFFF" d="M415.855,177.921h5.303v6.045h0.157c2.494-5.896,7.186-6.81,11.658-7.12v5.668
				c-3.709,0.305-6.895,1.686-8.936,4.135c-1.816,2.299-2.88,5.287-2.88,8.648v24.508h-5.301V177.921L415.855,177.921z"/>
			<path fill="#FFFFFF" d="M438.728,200.818c0.378,8.188,7.952,15.159,16.051,15.159c7.576-0.156,12.951-4.671,14.849-9.879h5.604
				c-2.88,8.35-10.835,14.705-20.376,14.705c-11.586,0-21.582-9.497-21.582-21.903c0-11.863,9.467-21.826,21.505-22.054
				c9.087,0.078,15.524,5.513,18.479,10.728c2.802,4.511,3.406,9.188,3.187,13.244H438.728z M471.062,195.992
				c-1.666-9.875-9.618-14.318-16.207-14.318c-6.513,0-14.612,4.443-16.127,14.318H471.062z"/>
		</g>
		<rect x="481.509" y="163.14" fill="#FFFFFF" width="5.3" height="56.672"/>
		<path fill="#FFFFFF" d="M535.732,219.805h-5.305v-7.353h-0.152c-4.538,6.893-11.806,8.35-16.13,8.35
			c-13.021,0-22.258-10.034-22.258-22.059c0-11.177,8.706-21.897,22.258-21.897c4.475,0,11.737,1.457,16.13,8.429h0.152v-7.353
			h5.305V219.805z M514.145,215.977c8.939,0,16.588-7.275,16.588-17.077c0-9.193-7.045-17.228-16.588-17.228
			c-9.08,0-16.958,6.66-16.958,17.304C497.187,208.319,504,215.977,514.145,215.977"/>
		<path fill="#FFFFFF" d="M543.833,177.921h5.299v5.357h0.155c1.591-2.526,5.677-6.433,12.717-6.433
			c5.078,0,9.313,1.302,13.109,5.13c3.1,3.064,5.146,7.891,5.146,14.785v23.044h-5.306v-23.044c0-5.442-1.663-9.271-3.938-11.486
			c-2.875-2.838-6.655-3.607-9.01-3.607c-2.345,0-6.13,0.77-9.007,3.607c-2.271,2.216-3.938,6.044-3.865,11.486v23.044h-5.298
			v-41.884H543.833z"/>
		<path fill="#FFFFFF" d="M628.868,219.805h-5.3v-7.353h-0.149c-4.392,6.659-11.739,8.35-16.13,8.35
			c-13.025,0-22.264-10.034-22.264-22.059c0-11.177,8.714-21.897,22.264-21.897c4.544,0,11.663,1.689,16.13,8.273h0.149V163.14h5.3
			V219.805z M607.289,215.977c8.937,0,16.586-7.275,16.586-17.077c0-9.193-7.048-17.228-16.586-17.228
			c-9.085,0-16.964,6.66-16.964,17.304C590.325,208.319,597.141,215.977,607.289,215.977"/>
	</g>
</g>
</svg>
